<svg id="Capa_1" data-name="Capa 1" xmlns="http://www.w3.org/2000/svg" viewBox="0 0 308.23 196.48"><title>logo</title><path d="M339.49,107.19c-3.12,0-5.76,1.19-7.19,6.23s-3.76,9.89-4.74,15.06c-.5,2.68-3.58,11.2-9.72,28.24-2.64,7.32-2.36,6.3-4.7,12.85-2.87,8-4.39,12.72-8.13,23.63q-3.64,10.61-7.24,21.19c-10.07-25.9-19.9-51.79-28.77-76.73h-6.47c-9.35,26.62-18.94,51.55-28.53,76-4.25-13.28-8.85-27.43-13.2-41.38a52.48,52.48,0,0,0-1.69-5.4c-.05-.17-.11-.35-.16-.53h0c-.22-.56-.41-1.12-.65-1.7a51.74,51.74,0,0,0-15.33-20,53.3,53.3,0,0,0-32.86-11.17c-22.78,0-53.23,18.46-53.23,57.54a54,54,0,0,0,.79,9c-2,5.35-4,10.41-5.76,14.76l-23.26-59c-3.11-8.87-1.91-11.27,9.11-13v0a3.24,3.24,0,1,0,0-6.43v0H49.29v.07a3.18,3.18,0,1,0,0,6.34v.06c13.19,1.68,15.35,4.56,20.62,17.75,7.19,17.26,20.14,46.75,29.49,74.08,1.44,4.08,1.44,6.23.48,9.83-1.2,3.12-4.79,11.51-9.83,21.58-2.87,6-8.39,11.75-16.06,17.74-3.6,3.12-5.28,5.27-5.28,8.39,0,6,7,11.51,14.63,11.51,3.11,0,5.75-1.2,7.19-6.23,3.84-12.47,8.15-27.34,23.74-65.7l7.35-18.53c7.78,17.59,24.77,31.24,48.45,31.24a52.19,52.19,0,0,0,38-17.13,53.07,53.07,0,0,0,7.53-10.77q4.39,13.89,8.62,27.8h7.19c9.59-26.61,20.38-53.22,29.25-75.28,9.35,24.7,19.18,49.63,28.77,75.28h7.43c10.31-31.64,21.82-65,28.77-83.43.62-1.65,1.2-3.13,1.75-4.47h-.1c1.54-3.39,3.4-7.33,5.55-11.62,2.87-6,8.39-11.75,16.06-17.74,3.6-3.12,5.27-5.28,5.27-8.4C354.11,112.7,347.16,107.19,339.49,107.19Zm-167,128.87c-19.66,0-33.09-22.06-33.09-52.51,0-27.81,13.19-42,27.81-42,21.1,0,32.61,22.77,32.61,50.82C199.8,225.27,187.33,236.06,172.47,236.06Z" transform="translate(-45.89 -107.19)"/></svg>