<svg xmlns="http://www.w3.org/2000/svg" viewBox="0 0 64 80" x="0px" y="0px"><title>monster-alien-space-galaxy-eye</title><g data-name="Layer 3"><path d="M61.93,34.7A19,19,0,0,0,43.12,17,21,21,0,1,0,14.4,42.16,27,27,0,0,0,9,46L6.1,48.63a3,3,0,0,0,.23,4.62h0l3.21,2.41a26.94,26.94,0,0,0,16,5.34h2.86a26.94,26.94,0,0,0,16-5.34l1.13-.85A19,19,0,0,0,62,36c0-.26,0-.52,0-.78A.92.92,0,0,0,61.93,34.7Zm-4,8.85A1,1,0,0,0,57,43H50.41l-2.29-2.29,1.77-6.17,3-1.4,5.54,3.69A1,1,0,0,0,59,37a1,1,0,0,0,.45-.11l.52-.26a17,17,0,0,1-1.91,7.25ZM47,47.8,45.05,46a26.74,26.74,0,0,0-5.76-4h7.3l2.19,2.2ZM8.89,10.31,21.59,23l-3.17,3.17a21,21,0,0,0-12.64-5.4l-1.61-.12A18.88,18.88,0,0,1,8.89,10.31ZM20.77,5.78a21,21,0,0,0,5.4,12.63L23,21.59,10.31,8.89A18.88,18.88,0,0,1,20.65,4.17ZM37.12,10.3a18.9,18.9,0,0,1,3.94,6.8A18.76,18.76,0,0,0,32,20.58,19.93,19.93,0,0,1,29,18.41Zm10.43,9.34.26.77L43,23.78l-4.81-3.37.26-.77a16.49,16.49,0,0,1,9.1,0Zm.18,14.72s0,0,0,.06l.06.1L46.25,40h-6.5l-1.59-5.57L43,31.2ZM36.88,32.88l-4.11-1.65-1.84-4.6a.94.94,0,0,0-.48-.52l-.91-.46a17.1,17.1,0,0,1,6.51-5.15,1,1,0,0,0,.38,1.12L42,25.52v3.94Zm-8.47-5.56.8.4,1.62,4-4,4L26,35.4A16.83,16.83,0,0,1,28.41,27.32Zm1.89-5.41a19.36,19.36,0,0,0-2.94,3.32,1,1,0,0,0-.25.32.61.61,0,0,0,0,.11L24.41,23l3.18-3.18A20.56,20.56,0,0,0,30.3,21.91ZM23,24.41l3.05,3.05a18.87,18.87,0,0,0-2,7.2,20.76,20.76,0,0,0-4.24-7.08ZM26.29,39c-.08-.45-.15-.9-.2-1.36l.46.23A.91.91,0,0,0,27,38a1,1,0,0,0,.71-.29l4.53-4.54,3.93,1.58L38,41.27a.41.41,0,0,0,.07.15A26.69,26.69,0,0,0,27,39ZM56.72,26a16.9,16.9,0,0,1,3.2,8.42l-.85.43-4.91-3.28L55.75,26ZM55,24h0a1,1,0,0,0-1,.73l-1.88,6.55L49,32.77l-5-3.31V25.52l5.57-3.9A1,1,0,0,0,50,20.5,17.07,17.07,0,0,1,55,24ZM35.69,8.89,27.59,17A19,19,0,0,1,22.76,5.64L22.65,4A18.91,18.91,0,0,1,35.69,8.89ZM4,22.65l1.61.11A19,19,0,0,1,17,27.58L8.89,35.69A18.91,18.91,0,0,1,4,22.65Zm6.26,14.47L18.42,29a18.85,18.85,0,0,1,4.69,10.29A26.18,26.18,0,0,0,16.89,41,19.15,19.15,0,0,1,10.29,37.12Zm33,16.94A24.86,24.86,0,0,1,28.43,59H25.57a24.86,24.86,0,0,1-14.83-4.94L7.53,51.65a1,1,0,0,1-.4-.76,1,1,0,0,1,.32-.78l2.85-2.62a25,25,0,0,1,6.89-4.44,1,1,0,0,0,.42-.18A24.66,24.66,0,0,1,43.7,47.49l2.85,2.62a1,1,0,0,1,.32.78,1,1,0,0,1-.4.76Zm5.35-2a3.12,3.12,0,0,0,.26-1,3,3,0,0,0-.42-1.65L50.62,45h5.76l.45.89A17,17,0,0,1,48.61,52Z"/>
<path d="M36,49H35V48a1,1,0,0,0-2,0v1H31V48a1,1,0,0,0-2,0v1H27V48a1,1,0,0,0-2,0v1H23V48a1,1,0,0,0-2,0v1H19V48a1,1,0,0,0-2,0v1H16a1,1,0,0,0,0,2h1v1a1,1,0,0,0,2,0V51h2v1a1,1,0,0,0,2,0V51h2v1a1,1,0,0,0,2,0V51h2v1a1,1,0,0,0,2,0V51h2v1a1,1,0,0,0,2,0V51h1a1,1,0,0,0,0-2Z"/></g>
</svg>