<svg xmlns="http://www.w3.org/2000/svg" xmlns:xlink="http://www.w3.org/1999/xlink" version="1.1" x="0px" y="0px" viewBox="0 0 100 125" enable-background="new 0 0 100 100" xml:space="preserve"><g><path d="M94.241,48.917c-0.026-0.398-0.207-1.587-1.395-2.65c-1.791-1.603-4.971-2.146-9.441-1.619    C73.163,45.857,48.29,45.096,48,45.087c-21.233,0-23.517-6.883-23.571-7.063c-0.054-0.224-0.168-0.43-0.332-0.593    c-2.143-2.143-3.805-1.649-8.246-0.333c-0.975,0.289-2.116,0.627-3.466,1.002c-3.776,1.05-5.879,2.678-6.25,4.84    c-0.587,3.417,3.492,6.385,3.916,6.681c2.534,1.943,6.06,3.43,10.204,4.563c-1.317,0.983-2.2,2.971-2.2,5.318    c0,3.352,1.798,5.978,4.094,5.979c0,0,0,0,0.001,0c0,0,0,0,0.001,0c0,0,0,0,0,0c0,0,0,0,0.001,0c0.024,0,0.047-0.001,0.072-0.002    l6.01-0.35c1.975,0,3.579-1.889,3.989-4.488l4.228-0.43c0.366,2.494,1.864,4.314,3.714,4.318c0.001,0,0.003,0.001,0.004,0.001    c0,0,0.001,0,0.001,0c0,0,0,0,0,0c0,0,0,0,0.001,0c0.033,0,0.067-0.001,0.1-0.004l5.616-0.452    c0.054-0.005,0.106-0.012,0.159-0.023c2.352-0.497,3.405-2.882,3.405-5.024c0-0.537-0.058-1.057-0.156-1.556    c1.738,0.034,3.465,0.05,5.167,0.05c3.801,0,7.475-0.076,10.878-0.185c-0.502,0.849-0.807,1.896-0.807,3.055    c0,2.866,1.797,5.11,4.092,5.112c0.001,0,0.001,0,0.002,0c0,0,0,0,0.001,0c0,0,0,0,0,0c0.001,0,0.003,0,0.004,0    c0.079,0,0.16-0.008,0.241-0.024l0.071-0.014c0.256-0.024,0.504-0.071,0.744-0.149l4.078-0.816c2.026-0.079,3.623-1.921,3.9-4.364    l1.381-0.14c0.495,1.852,1.87,3.163,3.551,3.165c0.001,0,0.001,0,0.002,0c0,0,0,0,0.001,0c0,0,0,0,0,0    c0.002,0,0.003-0.001,0.004-0.001c0.079,0,0.16-0.008,0.241-0.024l0.067-0.013c0.226-0.022,0.446-0.064,0.658-0.132l3.585-0.717    c2.044-0.087,3.625-2.103,3.625-4.66c0-0.985-0.244-1.916-0.68-2.687c1.215-0.576,2.186-1.301,2.896-2.177    C94.383,51.035,94.294,49.355,94.241,48.917z M22.151,56.022c0.635,0,1.595,1.388,1.595,3.479c0,2.08-0.949,3.461-1.584,3.477    l-0.018,0.001c-0.635-0.01-1.588-1.393-1.588-3.478C20.556,57.41,21.516,56.022,22.151,56.022z M28.161,62.632l-2.57,0.148    c0.414-0.936,0.654-2.058,0.654-3.278c0-1.654-0.439-3.129-1.158-4.201c1.043,0.202,2.112,0.387,3.202,0.557    c0.003,0.001,0.005,0.004,0.009,0.006c1.015,0.438,1.529,1.604,1.529,3.462C29.828,61.343,28.884,62.63,28.161,62.632z     M41.174,57.165c0.2,0.354,0.305,0.974,0.305,1.862c0,1.838-0.822,2.967-1.288,2.998l-0.032,0.003    c-0.379-0.014-0.999-0.784-1.215-2.073c0.673-0.082,1.162-0.684,1.093-1.362c-0.055-0.545-0.451-0.963-0.958-1.08    c0.049-0.165,0.103-0.322,0.167-0.47C39.888,57.086,40.53,57.127,41.174,57.165z M36.484,57.697l-0.846,0.086l-0.212-1.049    c0.414,0.039,0.83,0.076,1.248,0.112C36.593,57.12,36.532,57.404,36.484,57.697z M32.82,56.463l0.319,1.573l-0.879,0.089    c-0.078-0.688-0.23-1.267-0.422-1.778C32.163,56.388,32.491,56.426,32.82,56.463z M46.95,59.026c0,1.108-0.42,2.315-1.357,2.563    l-2.121,0.171c0.314-0.804,0.507-1.727,0.507-2.734c0-0.526-0.029-1.128-0.146-1.727c0.957,0.042,1.915,0.078,2.872,0.107    C46.862,57.894,46.95,58.449,46.95,59.026z M68.627,57.777c0.754,0,1.595,1.073,1.595,2.613c0,1.274-0.577,2.219-1.203,2.509    l-0.457,0.091c-0.737-0.06-1.53-1.106-1.53-2.601C67.031,58.851,67.872,57.777,68.627,57.777z M73.627,62.003    c-0.082,0-0.164,0.008-0.245,0.024l-0.932,0.186c0.169-0.566,0.272-1.175,0.272-1.823c0-1.28-0.373-2.422-0.974-3.31    c0.857-0.04,1.683-0.08,2.473-0.12c0.022,0.02,0.033,0.048,0.057,0.067c0.573,0.451,0.944,1.379,0.944,2.363    C75.222,60.93,74.381,62.003,73.627,62.003z M83.08,56.479c0.031,0.035,0.045,0.078,0.08,0.11c0.434,0.398,0.703,1.13,0.703,1.909    c0,1.028-0.46,1.831-0.958,2.077l-0.369,0.074c-0.362-0.039-0.738-0.399-0.97-0.959c0.552-0.175,0.936-0.695,0.875-1.294    c-0.053-0.518-0.42-0.931-0.885-1.072c0.132-0.328,0.321-0.599,0.547-0.782c0.088-0.004,0.186-0.009,0.269-0.013    C82.617,56.519,82.841,56.494,83.08,56.479z M78.928,57.496l-1.453,0.148c-0.083-0.292-0.187-0.572-0.31-0.838    c0.523-0.028,1.031-0.056,1.506-0.083c0.158-0.009,0.3-0.017,0.452-0.025C79.038,56.954,78.975,57.221,78.928,57.496z     M88.28,57.614c0,1.238-0.667,2.163-1.264,2.163c-0.082,0-0.164,0.008-0.245,0.024l-0.599,0.12    c0.113-0.45,0.191-0.921,0.191-1.424c0-0.828-0.192-1.619-0.514-2.319c0.634-0.105,1.233-0.232,1.799-0.379    C88.032,56.208,88.28,56.882,88.28,57.614z M90.999,51.241c-0.964,1.141-3.263,2.552-8.737,2.79    c-0.948,0.041-2.209,0.111-3.729,0.194c-14.89,0.822-54.449,3.003-67.004-6.621c-1.065-0.746-3.183-2.765-2.929-4.242    c0.188-1.094,1.77-2.108,4.456-2.854c1.366-0.38,2.52-0.722,3.507-1.015c2.335-0.692,3.53-1.021,4.292-1.021    c0.56,0,0.886,0.177,1.258,0.516c0.682,1.901,4.596,8.597,25.848,8.597c1.028,0.031,25.312,0.775,35.737-0.456    c4.765-0.561,6.685,0.342,7.401,0.931c0.586,0.483,0.643,0.963,0.646,0.963c0,0,0,0,0-0.001c0,0.055,0.007,0.137,0.014,0.191    C91.764,49.255,91.871,50.209,90.999,51.241z"/>
<path d="M14.554,60.9l-5.695-1.993c-0.652-0.229-1.365,0.115-1.593,0.767s0.115,1.365,0.767,1.593l5.695,1.993    c0.137,0.048,0.276,0.07,0.413,0.07c0.517,0,1-0.322,1.18-0.837C15.549,61.842,15.206,61.128,14.554,60.9z"/>
<path d="M14.554,55.849l-3.508-1.228c-0.652-0.229-1.365,0.115-1.593,0.767s0.115,1.365,0.767,1.593l3.508,1.228    c0.137,0.048,0.276,0.07,0.413,0.07c0.517,0,1-0.322,1.18-0.837C15.549,56.79,15.206,56.076,14.554,55.849z"/>
<path d="M58.42,61.678l2.718-0.019c0.69-0.005,1.246-0.568,1.241-1.259c-0.005-0.688-0.563-1.241-1.25-1.241    c-0.003,0-0.006,0-0.009,0l-2.718,0.019c-0.69,0.005-1.246,0.568-1.241,1.259c0.005,0.688,0.563,1.241,1.25,1.241    C58.414,61.678,58.417,61.678,58.42,61.678z"/>
<path d="M61.373,63.149l-4.713,0.162c-0.69,0.023-1.23,0.602-1.206,1.292c0.023,0.676,0.578,1.207,1.248,1.207    c0.015,0,0.029,0,0.044-0.001l4.713-0.162c0.69-0.023,1.23-0.602,1.206-1.292C62.642,63.665,62.069,63.097,61.373,63.149z"/></g>
</svg>