<?xml version="1.0" encoding="UTF-8"?>
<svg width="42px" height="42px" viewBox="0 0 42 42" version="1.1" xmlns="http://www.w3.org/2000/svg" xmlns:xlink="http://www.w3.org/1999/xlink">
    <!-- Generator: Sketch 58 (84663) - https://sketch.com -->
    <title>entypo-social:linkedin-with-circle</title>
    <desc>Created with Sketch.</desc>
    <g id="Yow-Web" stroke="none" stroke-width="1" fill="none" fill-rule="evenodd">
        <g id="Homepage" transform="translate(-1259.000000, -4774.000000)" fill-rule="nonzero">
            <g id="entypo-social:linkedin-with-circle" transform="translate(1259.000000, 4774.000000)">
                <g id="Icon" fill="#FFFEFE">
                    <path d="M21,0.84 C9.8658,0.84 0.84,9.8658 0.84,21 C0.84,32.1342 9.8658,41.16 21,41.16 C32.1342,41.16 41.16,32.1342 41.16,21 C41.16,9.8658 32.1342,0.84 21,0.84 Z M16.065,29.3559 L11.9826,29.3559 L11.9826,16.2183 L16.065,16.2183 L16.065,29.3559 Z M13.9986,14.6055 C12.7092,14.6055 11.8755,13.692 11.8755,12.5622 C11.8755,11.4093 12.7344,10.5231 14.0511,10.5231 C15.3678,10.5231 16.1742,11.4093 16.1994,12.5622 C16.1994,13.692 15.3678,14.6055 13.9986,14.6055 Z M30.975,29.3559 L26.8926,29.3559 L26.8926,22.0752 C26.8926,20.3805 26.3004,19.2297 24.8241,19.2297 C23.6964,19.2297 23.0265,20.0088 22.7304,20.7585 C22.6212,21.0252 22.5939,21.4032 22.5939,21.7791 L22.5939,29.3538 L18.5094,29.3538 L18.5094,20.4078 C18.5094,18.7677 18.4569,17.3964 18.4023,16.2162 L21.9492,16.2162 L22.1361,18.0411 L22.218,18.0411 C22.7556,17.1843 24.0723,15.9201 26.2752,15.9201 C28.9611,15.9201 30.975,17.7198 30.975,21.588 L30.975,29.3559 L30.975,29.3559 Z" id="Icon-Shape"></path>
                </g>
                <rect id="ViewBox" x="0" y="0" width="42" height="42"></rect>
            </g>
        </g>
    </g>
</svg>