<?xml version="1.0" encoding="utf-8"?>
<!-- Generator: Adobe Illustrator 23.1.1, SVG Export Plug-In . SVG Version: 6.00 Build 0)  -->
<svg version="1.1" id="Capa_1" xmlns="http://www.w3.org/2000/svg" xmlns:xlink="http://www.w3.org/1999/xlink" x="0px" y="0px"
	 viewBox="0 0 400 400" style="enable-background:new 0 0 400 400;" xml:space="preserve">
<path class="st0" d="M339.49,107.19c-3.12,0-5.76,1.2-7.19,6.23c-1.44,5.06-3.75,9.89-4.73,15.07c-0.51,2.68-3.58,11.2-9.72,28.24
	c-2.64,7.31-2.36,6.3-4.7,12.85c-2.86,8-4.39,12.72-8.13,23.63c-2.42,7.07-4.83,14.13-7.23,21.18
	c-10.07-25.89-19.9-51.79-28.77-76.72h-6.47c-9.35,26.61-18.94,51.55-28.53,76c-4.25-13.28-8.85-27.43-13.2-41.37
	c-0.43-1.73-0.99-3.53-1.68-5.4c-0.05-0.17-0.11-0.35-0.16-0.53h-0.04c-0.22-0.57-0.4-1.12-0.65-1.7
	c-1.63-3.83-5.96-12.64-15.33-20.06c-13.91-11-29.2-11.16-32.86-11.16c-22.78,0-53.23,18.46-53.23,57.54c0,3.01,0.29,6.01,0.79,8.98
	c-2.03,5.35-3.99,10.4-5.76,14.76l-23.26-58.98c-3.12-8.87-1.92-11.27,9.11-12.95v-0.02c2.04-0.06,3.67-1.46,3.67-3.22
	s-1.64-3.16-3.67-3.22v-0.02H49.29v0.07c-1.9,0.17-3.41,1.5-3.41,3.17c0,1.67,1.5,3,3.41,3.17v0.07
	c13.19,1.68,15.34,4.56,20.62,17.74c7.19,17.26,20.14,46.75,29.49,74.08c1.44,4.07,1.44,6.23,0.48,9.83
	c-1.2,3.12-4.8,11.51-9.83,21.58c-2.88,5.99-8.39,11.75-16.06,17.74c-3.6,3.12-5.27,5.27-5.27,8.39c0,5.99,6.95,11.51,14.62,11.51
	c3.12,0,5.76-1.2,7.19-6.23c3.84-12.47,8.15-27.33,23.74-65.69c2.71-6.84,5.14-12.96,7.35-18.53c7.78,17.59,24.77,31.24,48.45,31.24
	c12.95,0,27.49-5.6,37.95-17.13c3.18-3.5,5.62-7.15,7.54-10.76c2.92,9.26,5.81,18.52,8.62,27.8h7.19
	c9.59-26.61,20.38-53.23,29.25-75.28c9.35,24.69,19.18,49.63,28.77,75.28h7.43c10.31-31.65,21.82-64.97,28.77-83.43
	c0.62-1.65,1.19-3.13,1.75-4.47h-0.1c1.54-3.39,3.4-7.33,5.55-11.62c2.88-5.99,8.39-11.75,16.06-17.74c3.6-3.12,5.27-5.27,5.27-8.39
	C354.11,112.7,347.16,107.19,339.49,107.19z M172.47,236.06c-19.66,0-33.09-22.06-33.09-52.51c0-27.81,13.19-41.96,27.81-41.96
	c21.1,0,32.61,22.78,32.61,50.83C199.8,225.27,187.33,236.06,172.47,236.06z"/>
</svg>
